<mxfile host="app.diagrams.net" modified="2023-11-15T21:09:17.107Z" agent="Mozilla/5.0 (X11; Linux x86_64; rv:109.0) Gecko/20100101 Firefox/118.0" etag="f9r6LEpR6CykCtKCOGz-" version="22.1.2" type="device">
  <diagram name="Page-1" id="2YBvvXClWsGukQMizWep">
    <mxGraphModel dx="2284" dy="732" grid="1" gridSize="10" guides="1" tooltips="1" connect="1" arrows="1" fold="1" page="1" pageScale="1" pageWidth="850" pageHeight="1100" math="0" shadow="0">
      <root>
        <mxCell id="0" />
        <mxCell id="1" parent="0" />
        <mxCell id="aM9ryv3xv72pqoxQDRHE-1" value="OEM Web Server" style="shape=umlLifeline;perimeter=lifelinePerimeter;whiteSpace=wrap;html=1;container=0;dropTarget=0;collapsible=0;recursiveResize=0;outlineConnect=0;portConstraint=eastwest;newEdgeStyle={&quot;edgeStyle&quot;:&quot;elbowEdgeStyle&quot;,&quot;elbow&quot;:&quot;vertical&quot;,&quot;curved&quot;:0,&quot;rounded&quot;:0};fontSize=14;" parent="1" vertex="1">
          <mxGeometry x="40" y="40" width="100" height="300" as="geometry" />
        </mxCell>
        <mxCell id="aM9ryv3xv72pqoxQDRHE-2" value="" style="html=1;points=[];perimeter=orthogonalPerimeter;outlineConnect=0;targetShapes=umlLifeline;portConstraint=eastwest;newEdgeStyle={&quot;edgeStyle&quot;:&quot;elbowEdgeStyle&quot;,&quot;elbow&quot;:&quot;vertical&quot;,&quot;curved&quot;:0,&quot;rounded&quot;:0};fontSize=14;" parent="aM9ryv3xv72pqoxQDRHE-1" vertex="1">
          <mxGeometry x="45" y="70" width="10" height="190" as="geometry" />
        </mxCell>
        <mxCell id="aM9ryv3xv72pqoxQDRHE-3" value="initiate update" style="html=1;verticalAlign=bottom;startArrow=oval;endArrow=block;startSize=8;edgeStyle=elbowEdgeStyle;elbow=vertical;curved=0;rounded=0;fontSize=14;horizontal=1;labelPosition=center;verticalLabelPosition=top;align=center;" parent="aM9ryv3xv72pqoxQDRHE-1" target="aM9ryv3xv72pqoxQDRHE-2" edge="1">
          <mxGeometry x="-0.2" relative="1" as="geometry">
            <mxPoint x="-30" y="70" as="sourcePoint" />
            <mxPoint as="offset" />
          </mxGeometry>
        </mxCell>
        <mxCell id="aM9ryv3xv72pqoxQDRHE-4" value="" style="html=1;points=[];perimeter=orthogonalPerimeter;outlineConnect=0;targetShapes=umlLifeline;portConstraint=eastwest;newEdgeStyle={&quot;edgeStyle&quot;:&quot;elbowEdgeStyle&quot;,&quot;elbow&quot;:&quot;vertical&quot;,&quot;curved&quot;:0,&quot;rounded&quot;:0};fontSize=14;" parent="aM9ryv3xv72pqoxQDRHE-1" vertex="1">
          <mxGeometry x="50" y="90" width="10" height="110" as="geometry" />
        </mxCell>
        <mxCell id="aM9ryv3xv72pqoxQDRHE-5" value="Geth Signer" style="shape=umlLifeline;perimeter=lifelinePerimeter;whiteSpace=wrap;html=1;container=0;dropTarget=0;collapsible=0;recursiveResize=0;outlineConnect=0;portConstraint=eastwest;newEdgeStyle={&quot;edgeStyle&quot;:&quot;elbowEdgeStyle&quot;,&quot;elbow&quot;:&quot;vertical&quot;,&quot;curved&quot;:0,&quot;rounded&quot;:0};fontSize=14;" parent="1" vertex="1">
          <mxGeometry x="170" y="40" width="100" height="300" as="geometry" />
        </mxCell>
        <mxCell id="aM9ryv3xv72pqoxQDRHE-6" value="" style="html=1;points=[];perimeter=orthogonalPerimeter;outlineConnect=0;targetShapes=umlLifeline;portConstraint=eastwest;newEdgeStyle={&quot;edgeStyle&quot;:&quot;elbowEdgeStyle&quot;,&quot;elbow&quot;:&quot;vertical&quot;,&quot;curved&quot;:0,&quot;rounded&quot;:0};fontSize=14;" parent="aM9ryv3xv72pqoxQDRHE-5" vertex="1">
          <mxGeometry x="45" y="80" width="10" height="170" as="geometry" />
        </mxCell>
        <mxCell id="TAbqppU3QDtRmA8pUn93-1" value="server IPFS node" style="shape=umlLifeline;perimeter=lifelinePerimeter;whiteSpace=wrap;html=1;container=0;dropTarget=0;collapsible=0;recursiveResize=0;outlineConnect=0;portConstraint=eastwest;newEdgeStyle={&quot;edgeStyle&quot;:&quot;elbowEdgeStyle&quot;,&quot;elbow&quot;:&quot;vertical&quot;,&quot;curved&quot;:0,&quot;rounded&quot;:0};fontSize=14;" vertex="1" parent="1">
          <mxGeometry x="300" y="40" width="100" height="300" as="geometry" />
        </mxCell>
        <mxCell id="TAbqppU3QDtRmA8pUn93-2" value="" style="html=1;points=[];perimeter=orthogonalPerimeter;outlineConnect=0;targetShapes=umlLifeline;portConstraint=eastwest;newEdgeStyle={&quot;edgeStyle&quot;:&quot;elbowEdgeStyle&quot;,&quot;elbow&quot;:&quot;vertical&quot;,&quot;curved&quot;:0,&quot;rounded&quot;:0};fontSize=14;" vertex="1" parent="TAbqppU3QDtRmA8pUn93-1">
          <mxGeometry x="45" y="80" width="10" height="170" as="geometry" />
        </mxCell>
        <mxCell id="TAbqppU3QDtRmA8pUn93-3" value="Client web server" style="shape=umlLifeline;perimeter=lifelinePerimeter;whiteSpace=wrap;html=1;container=0;dropTarget=0;collapsible=0;recursiveResize=0;outlineConnect=0;portConstraint=eastwest;newEdgeStyle={&quot;edgeStyle&quot;:&quot;elbowEdgeStyle&quot;,&quot;elbow&quot;:&quot;vertical&quot;,&quot;curved&quot;:0,&quot;rounded&quot;:0};fontSize=14;" vertex="1" parent="1">
          <mxGeometry x="425" y="40" width="100" height="430" as="geometry" />
        </mxCell>
        <mxCell id="TAbqppU3QDtRmA8pUn93-4" value="" style="html=1;points=[];perimeter=orthogonalPerimeter;outlineConnect=0;targetShapes=umlLifeline;portConstraint=eastwest;newEdgeStyle={&quot;edgeStyle&quot;:&quot;elbowEdgeStyle&quot;,&quot;elbow&quot;:&quot;vertical&quot;,&quot;curved&quot;:0,&quot;rounded&quot;:0};fontSize=14;" vertex="1" parent="TAbqppU3QDtRmA8pUn93-3">
          <mxGeometry x="45" y="80" width="10" height="320" as="geometry" />
        </mxCell>
        <mxCell id="TAbqppU3QDtRmA8pUn93-21" value="" style="html=1;points=[];perimeter=orthogonalPerimeter;outlineConnect=0;targetShapes=umlLifeline;portConstraint=eastwest;newEdgeStyle={&quot;edgeStyle&quot;:&quot;elbowEdgeStyle&quot;,&quot;elbow&quot;:&quot;vertical&quot;,&quot;curved&quot;:0,&quot;rounded&quot;:0};fontSize=14;" vertex="1" parent="TAbqppU3QDtRmA8pUn93-3">
          <mxGeometry x="50" y="252" width="10" height="128" as="geometry" />
        </mxCell>
        <mxCell id="TAbqppU3QDtRmA8pUn93-5" value="Geth node" style="shape=umlLifeline;perimeter=lifelinePerimeter;whiteSpace=wrap;html=1;container=0;dropTarget=0;collapsible=0;recursiveResize=0;outlineConnect=0;portConstraint=eastwest;newEdgeStyle={&quot;edgeStyle&quot;:&quot;elbowEdgeStyle&quot;,&quot;elbow&quot;:&quot;vertical&quot;,&quot;curved&quot;:0,&quot;rounded&quot;:0};fontSize=14;" vertex="1" parent="1">
          <mxGeometry x="550" y="40" width="100" height="430" as="geometry" />
        </mxCell>
        <mxCell id="TAbqppU3QDtRmA8pUn93-6" value="" style="html=1;points=[];perimeter=orthogonalPerimeter;outlineConnect=0;targetShapes=umlLifeline;portConstraint=eastwest;newEdgeStyle={&quot;edgeStyle&quot;:&quot;elbowEdgeStyle&quot;,&quot;elbow&quot;:&quot;vertical&quot;,&quot;curved&quot;:0,&quot;rounded&quot;:0};fontSize=14;" vertex="1" parent="TAbqppU3QDtRmA8pUn93-5">
          <mxGeometry x="45" y="80" width="10" height="320" as="geometry" />
        </mxCell>
        <mxCell id="TAbqppU3QDtRmA8pUn93-7" value="client IPFS node" style="shape=umlLifeline;perimeter=lifelinePerimeter;whiteSpace=wrap;html=1;container=0;dropTarget=0;collapsible=0;recursiveResize=0;outlineConnect=0;portConstraint=eastwest;newEdgeStyle={&quot;edgeStyle&quot;:&quot;elbowEdgeStyle&quot;,&quot;elbow&quot;:&quot;vertical&quot;,&quot;curved&quot;:0,&quot;rounded&quot;:0};fontSize=14;" vertex="1" parent="1">
          <mxGeometry x="680" y="40" width="100" height="430" as="geometry" />
        </mxCell>
        <mxCell id="TAbqppU3QDtRmA8pUn93-8" value="" style="html=1;points=[];perimeter=orthogonalPerimeter;outlineConnect=0;targetShapes=umlLifeline;portConstraint=eastwest;newEdgeStyle={&quot;edgeStyle&quot;:&quot;elbowEdgeStyle&quot;,&quot;elbow&quot;:&quot;vertical&quot;,&quot;curved&quot;:0,&quot;rounded&quot;:0};fontSize=14;" vertex="1" parent="TAbqppU3QDtRmA8pUn93-7">
          <mxGeometry x="45" y="80" width="10" height="320" as="geometry" />
        </mxCell>
        <mxCell id="TAbqppU3QDtRmA8pUn93-9" value="IoT device" style="shape=umlLifeline;perimeter=lifelinePerimeter;whiteSpace=wrap;html=1;container=0;dropTarget=0;collapsible=0;recursiveResize=0;outlineConnect=0;portConstraint=eastwest;newEdgeStyle={&quot;edgeStyle&quot;:&quot;elbowEdgeStyle&quot;,&quot;elbow&quot;:&quot;vertical&quot;,&quot;curved&quot;:0,&quot;rounded&quot;:0};fontSize=14;" vertex="1" parent="1">
          <mxGeometry x="810" y="40" width="100" height="430" as="geometry" />
        </mxCell>
        <mxCell id="TAbqppU3QDtRmA8pUn93-10" value="" style="html=1;points=[];perimeter=orthogonalPerimeter;outlineConnect=0;targetShapes=umlLifeline;portConstraint=eastwest;newEdgeStyle={&quot;edgeStyle&quot;:&quot;elbowEdgeStyle&quot;,&quot;elbow&quot;:&quot;vertical&quot;,&quot;curved&quot;:0,&quot;rounded&quot;:0};fontSize=14;" vertex="1" parent="TAbqppU3QDtRmA8pUn93-9">
          <mxGeometry x="45" y="80" width="10" height="320" as="geometry" />
        </mxCell>
        <mxCell id="TAbqppU3QDtRmA8pUn93-11" value="" style="endArrow=none;dashed=1;html=1;dashPattern=1 3;strokeWidth=2;rounded=0;fontSize=14;" edge="1" parent="1">
          <mxGeometry width="50" height="50" relative="1" as="geometry">
            <mxPoint x="410" y="430" as="sourcePoint" />
            <mxPoint x="410" y="20" as="targetPoint" />
          </mxGeometry>
        </mxCell>
        <mxCell id="TAbqppU3QDtRmA8pUn93-12" value="invoke update" style="html=1;verticalAlign=bottom;startArrow=oval;endArrow=block;startSize=8;edgeStyle=elbowEdgeStyle;elbow=vertical;curved=0;rounded=0;fontSize=14;horizontal=1;" edge="1" parent="1">
          <mxGeometry relative="1" as="geometry">
            <mxPoint x="420" y="283" as="sourcePoint" />
            <mxPoint x="470" y="283" as="targetPoint" />
          </mxGeometry>
        </mxCell>
        <mxCell id="TAbqppU3QDtRmA8pUn93-13" value="retreive firmware" style="html=1;verticalAlign=bottom;endArrow=block;edgeStyle=elbowEdgeStyle;elbow=vertical;curved=0;rounded=0;fontSize=14;" edge="1" parent="1">
          <mxGeometry relative="1" as="geometry">
            <mxPoint x="485" y="353" as="sourcePoint" />
            <Array as="points">
              <mxPoint x="625" y="353" />
            </Array>
            <mxPoint x="725" y="353" as="targetPoint" />
          </mxGeometry>
        </mxCell>
        <mxCell id="TAbqppU3QDtRmA8pUn93-14" value="firmware blob" style="html=1;verticalAlign=bottom;endArrow=block;edgeStyle=elbowEdgeStyle;elbow=vertical;curved=0;rounded=0;fontSize=14;" edge="1" parent="1" source="TAbqppU3QDtRmA8pUn93-8" target="TAbqppU3QDtRmA8pUn93-21">
          <mxGeometry x="0.1304" relative="1" as="geometry">
            <mxPoint x="665" y="380" as="sourcePoint" />
            <Array as="points">
              <mxPoint x="640" y="380" />
            </Array>
            <mxPoint x="550" y="380" as="targetPoint" />
            <mxPoint as="offset" />
          </mxGeometry>
        </mxCell>
        <mxCell id="TAbqppU3QDtRmA8pUn93-16" value="file content" style="html=1;verticalAlign=bottom;endArrow=block;edgeStyle=elbowEdgeStyle;elbow=vertical;curved=0;rounded=0;fontSize=14;labelPosition=left;verticalLabelPosition=top;align=right;" edge="1" parent="1" source="aM9ryv3xv72pqoxQDRHE-4" target="TAbqppU3QDtRmA8pUn93-2">
          <mxGeometry x="-0.1837" relative="1" as="geometry">
            <mxPoint x="110" y="140" as="sourcePoint" />
            <Array as="points">
              <mxPoint x="195" y="140" />
            </Array>
            <mxPoint x="230" y="140" as="targetPoint" />
            <mxPoint as="offset" />
          </mxGeometry>
        </mxCell>
        <mxCell id="TAbqppU3QDtRmA8pUn93-17" value="content id" style="html=1;verticalAlign=bottom;endArrow=block;edgeStyle=elbowEdgeStyle;elbow=vertical;curved=0;rounded=0;fontSize=14;labelPosition=left;verticalLabelPosition=top;align=right;" edge="1" parent="1" source="TAbqppU3QDtRmA8pUn93-2" target="aM9ryv3xv72pqoxQDRHE-4">
          <mxGeometry x="0.1837" relative="1" as="geometry">
            <mxPoint x="270" y="170" as="sourcePoint" />
            <Array as="points">
              <mxPoint x="245" y="170" />
            </Array>
            <mxPoint x="155" y="170" as="targetPoint" />
            <mxPoint as="offset" />
          </mxGeometry>
        </mxCell>
        <mxCell id="TAbqppU3QDtRmA8pUn93-18" value="uploadFirmware()" style="html=1;verticalAlign=bottom;endArrow=block;edgeStyle=elbowEdgeStyle;elbow=vertical;curved=0;rounded=0;fontSize=14;" edge="1" parent="1" source="aM9ryv3xv72pqoxQDRHE-4" target="aM9ryv3xv72pqoxQDRHE-6">
          <mxGeometry relative="1" as="geometry">
            <mxPoint x="110" y="200" as="sourcePoint" />
            <Array as="points">
              <mxPoint x="165" y="200" />
            </Array>
            <mxPoint x="200" y="200" as="targetPoint" />
          </mxGeometry>
        </mxCell>
        <mxCell id="TAbqppU3QDtRmA8pUn93-19" value="transactionStatus" style="html=1;verticalAlign=bottom;endArrow=block;edgeStyle=elbowEdgeStyle;elbow=vertical;curved=0;rounded=0;fontSize=14;" edge="1" parent="1">
          <mxGeometry relative="1" as="geometry">
            <mxPoint x="215" y="227" as="sourcePoint" />
            <Array as="points" />
            <mxPoint x="100" y="227" as="targetPoint" />
          </mxGeometry>
        </mxCell>
        <mxCell id="TAbqppU3QDtRmA8pUn93-20" value="blockchain state propagates" style="html=1;verticalAlign=bottom;endArrow=open;dashed=1;endSize=8;edgeStyle=elbowEdgeStyle;elbow=vertical;curved=0;rounded=0;fontSize=14;" edge="1" parent="1" source="aM9ryv3xv72pqoxQDRHE-6" target="TAbqppU3QDtRmA8pUn93-6">
          <mxGeometry relative="1" as="geometry">
            <mxPoint x="560" y="220" as="targetPoint" />
            <Array as="points">
              <mxPoint x="350" y="220" />
            </Array>
            <mxPoint x="240" y="220" as="sourcePoint" />
          </mxGeometry>
        </mxCell>
        <mxCell id="aM9ryv3xv72pqoxQDRHE-10" value="file propagates" style="html=1;verticalAlign=bottom;endArrow=open;dashed=1;endSize=8;edgeStyle=elbowEdgeStyle;elbow=vertical;curved=0;rounded=0;fontSize=14;" parent="1" source="TAbqppU3QDtRmA8pUn93-2" target="TAbqppU3QDtRmA8pUn93-8" edge="1">
          <mxGeometry relative="1" as="geometry">
            <mxPoint x="550" y="180" as="targetPoint" />
            <Array as="points">
              <mxPoint x="515" y="180" />
            </Array>
            <mxPoint x="430" y="180" as="sourcePoint" />
          </mxGeometry>
        </mxCell>
        <mxCell id="TAbqppU3QDtRmA8pUn93-22" value="getFirmwareHash()" style="html=1;verticalAlign=bottom;endArrow=block;edgeStyle=elbowEdgeStyle;elbow=vertical;curved=0;rounded=0;fontSize=14;" edge="1" parent="1">
          <mxGeometry relative="1" as="geometry">
            <mxPoint x="485" y="301" as="sourcePoint" />
            <Array as="points" />
            <mxPoint x="595" y="301" as="targetPoint" />
          </mxGeometry>
        </mxCell>
        <mxCell id="TAbqppU3QDtRmA8pUn93-23" value="content id" style="html=1;verticalAlign=bottom;endArrow=block;edgeStyle=elbowEdgeStyle;elbow=vertical;curved=0;rounded=0;fontSize=14;" edge="1" parent="1">
          <mxGeometry x="0.1304" relative="1" as="geometry">
            <mxPoint x="595" y="329" as="sourcePoint" />
            <Array as="points">
              <mxPoint x="520" y="329" />
            </Array>
            <mxPoint x="485" y="329" as="targetPoint" />
            <mxPoint as="offset" />
          </mxGeometry>
        </mxCell>
        <mxCell id="TAbqppU3QDtRmA8pUn93-24" value="push update to device" style="html=1;verticalAlign=bottom;endArrow=block;edgeStyle=elbowEdgeStyle;elbow=vertical;curved=0;rounded=0;fontSize=14;" edge="1" parent="1" source="TAbqppU3QDtRmA8pUn93-21" target="TAbqppU3QDtRmA8pUn93-10">
          <mxGeometry relative="1" as="geometry">
            <mxPoint x="525" y="410" as="sourcePoint" />
            <Array as="points">
              <mxPoint x="665" y="410" />
            </Array>
            <mxPoint x="765" y="410" as="targetPoint" />
          </mxGeometry>
        </mxCell>
      </root>
    </mxGraphModel>
  </diagram>
</mxfile>
